<svg width="77" height="89" viewBox="0 0 77 89" fill="none" xmlns="http://www.w3.org/2000/svg">
<g clip-path="url(#clip0_274_24)">
<mask id="mask0_274_24" style="mask-type:luminance" maskUnits="userSpaceOnUse" x="0" y="0" width="77" height="89">
<path d="M38.9691 0.00120354L0 22.5L38 88.3179L76.9691 65.8191L38.9691 0.00120354Z" fill="white"/>
</mask>
<g mask="url(#mask0_274_24)">
<path d="M45.3857 56.7715C45.4726 56.8787 45.6983 56.765 45.8677 56.6644C50.847 53.6681 57.7463 50.5324 63.6183 50.7836C65.2516 50.8539 66.8 51.205 68.2097 52.0752C71.5047 54.1153 71.7101 58.436 70.7412 61.828C70.5652 62.4459 70.4005 63.0738 70.1476 63.645L69.4839 65.1435C65.4175 74.3104 52.5662 81.5644 42.4538 80.3076C41.4346 80.181 40.6022 79.9024 39.6739 79.5825C36.2649 78.4117 34.1895 75.2975 34.5661 71.6678C35.0752 66.7633 38.5851 62.5531 42.1016 59.4599L41.2229 59.7353L41.2955 59.3373C42.6645 58.6518 43.8949 57.7841 44.9891 56.7382L45.3902 56.7744L45.3857 56.7715Z" fill="white"/>
<path d="M36.5713 39.9617L37.0105 39.5066C37.8534 39.1497 39.266 38.6793 40.1576 38.4406C40.364 38.3849 40.5803 38.4422 40.7781 38.4964C40.6916 38.5822 40.4916 38.5818 40.5661 38.7734C42.2287 38.385 43.7756 38.3201 45.3475 38.6687C49.7748 39.652 50.9204 44.1449 50.1681 48.138C49.5928 51.1978 48.1587 53.9859 46.0034 56.2794C45.7959 56.5014 45.5499 56.6185 45.3866 56.768C43.0066 58.9703 43.9757 57.9912 41.2205 59.731C39.5421 60.2555 37.939 61.0927 36.0993 61.4675C32.1946 62.2641 24.7066 62.7029 21.6847 59.7708C19.05 57.2115 21.7403 52.7401 23.515 50.4649C26.6689 46.4215 30.7057 43.177 35.2186 40.7233C35.7252 40.4474 36.3254 40.4488 36.5734 39.9605" fill="white"/>
<path d="M24.1268 27.7356C24.4876 26.9669 25.5839 26.4195 26.4151 26.5856C31.3472 24.5553 41.3569 22.448 46.0638 25.7849C48.1217 27.2444 48.7945 29.741 47.7471 32.0215C45.9195 35.9976 40.6414 39.0338 36.8723 40.7572C35.5303 41.3691 34.0651 41.7678 32.6656 42.2224C28.9283 43.3282 24.3605 43.7403 22.2397 39.5287C21.3889 37.8389 20.782 36.0524 20.6012 34.1773C20.3214 31.2993 21.8254 29.1416 24.1301 27.7365" fill="white"/>
<path d="M30.2334 25.0716C29.4373 25.3988 28.6806 25.7749 27.9451 26.2216C27.7301 26.0559 27.5408 26.3143 27.2633 26.4055C23.6736 27.589 19.8523 27.8958 16.1485 27.2044C14.8843 26.9707 13.6835 26.6066 12.6999 25.7776C10.622 24.0287 11.7099 21.0208 12.9053 19.0303C15.1096 15.3558 18.2356 12.408 21.7882 9.97314C23.0562 9.10307 24.4394 8.42316 25.9021 8.13081C29.5387 7.40334 30.8275 11.1014 31.8 13.8142C33.0514 17.313 34.1026 22.1807 30.5496 24.7013C30.3698 24.8272 30.1693 24.8933 30.2322 25.0695" fill="white"/>
</g>
</g>
<defs>
<clipPath id="clip0_274_24">
<rect width="45" height="76" fill="white" transform="translate(0 22.5) rotate(-30)"/>
</clipPath>
</defs>
</svg>
