<?xml version="1.0" encoding="UTF-8"?>
<svg id="Calque_2" data-name="Calque 2" xmlns="http://www.w3.org/2000/svg" viewBox="0 0 676.91 128.26">
  <defs>
    <style>
      .cls-1 {
        fill: #fffdfd;
      }

      .cls-2 {
        fill: #166f71;
      }

      .cls-3 {
        fill: #fff;
      }
    </style>
  </defs>
  <g id="Calque_1-2" data-name="Calque 1">
    <g>
      <path class="cls-2" d="M77.71,126.38c-8.26.59-16.06.58-23.91-.05-2.01-.16-3.51-1.46-3.67-3.41-.9-11.47-.57-22.58-.9-34.1-.1-3.64-.73-7.38-3.6-9.62-2.47-1.93-5.9-1.57-8.74-.13-2.25,1.15-4.38,4.33-4.39,7.65l-.18,35.58c0,1.64-.74,3.59-2.6,3.86-8.02,1.15-15.99,1.24-24.2.33-1.99-.22-3.88-1.57-4.08-3.79-2-22.21-1.96-44.26.43-66.5.18-1.66.97-3.77,2.71-3.92,6.8-.6,13.71-.81,20.41.13l3.1,8.71c5.39-7.46,13.52-10.71,22.5-10.9,9.38-.21,17.56,3.46,23.06,11.57,6.94-8.06,15.97-12.02,26.54-11.6,19.27.76,27.31,14.28,29.08,32.15,1.34,13.6.78,27.02-.03,40.66-.11,1.91-1.24,3.3-3.05,3.44-7.93.59-15.72.83-23.54-.14-2.66-.33-4.33-1.65-4.35-4.43l-.32-30.85c-.04-3.56-.25-7.41-2.29-10.31-2.15-3.06-6.52-3.17-9.63-1.98-3.15,1.21-4.93,4.82-4.96,8.65l-.27,35.55c-.01,1.5-1.12,3.31-3.13,3.46Z"/>
      <path class="cls-2" d="M495.05,100.55c1.69,7.04,4.06,14.33,2.62,21.52-1.49,2.85-6.14,4.32-9.24,5.03-9.96,2.29-25.04,1.69-32.24-6.59-10.06-11.57-7.44-29.95-7.67-44.7-3.63-.32-6.82.32-10.51-.75-.88-7.07-1.02-14.46.62-21.35,3.56-1.54,6.87-1.03,10.6-1.27l1.72-16.63c.23-2.25,1.83-3.24,4.09-3.33,6.94-.28,13.69-.27,20.6.02,1.82.08,3.39,1.39,3.39,3.2l.06,16.75,14.58.13c1.77.02,2.73,1.1,2.94,2.79.74,5.92.92,11.6-.13,17.44-1.02,5.64-11.57,1.68-17.81,3.27.27,7.67-.72,15.53,1.35,22.88,1.55,5.49,11.65,1.03,15.03,1.6Z"/>
      <path class="cls-2" d="M571.21,105.06l2.92,10.08c.94,3.24-.36,6.18-3.68,7.71-19.84,9.16-49.66,7.65-62.18-12.18-4.72-7.49-6.27-15.36-6-24.04.5-16.22,10.23-29.9,25.91-34.69,9.33-2.85,19.16-2.77,28.57-.11,15.47,4.38,24.14,20.14,18.68,35.29-2.89,8.01-16.79,10-23.89,10.14l-18.89.36c.97,3.78,4.33,5.78,8.2,6.66,17.39,3.99,27.91-7.66,30.35.77Z"/>
      <path class="cls-3" d="M547.81,80.67c-5,2.09-10.97.62-16.19,1.08-.84-3.79,1.04-5.99,2.77-7.97,2.93-3.35,11.33-3.83,14.13.56.88,1.38,1.77,5.3-.71,6.33Z"/>
      <path class="cls-2" d="M225.36,116.68c-15.03-15.35-10.27-43.62,2.71-56.34,8.76-8.59,21.16-11.72,33.2-10.45,3.09.33,5.7,1.2,8.76,1.15l1.8-18.09c.15-1.48,1.38-2.83,2.95-2.95,9.07-.7,17.87-1.09,27.39.44-1.36,30.87-1.03,61.08.45,91.77.09,1.82-.66,3.56-2.28,3.83-7.79,1.29-15.45,1.6-23.37.47l-2.49-6.46c-12.6,12.85-37.55,8.45-49.12-3.37Z"/>
      <path class="cls-3" d="M268.69,99.02c-2.07,5.93-13.09,5.21-16.76,1.97-6.98-6.15-5.99-20.4,2.79-25.6,4.22-2.5,10.99-2.99,14.83.4-.66,7.26,1.67,15.98-.86,23.22Z"/>
      <path class="cls-2" d="M587.26,120.68c-4.93-4.58-6.49-10.94-6.42-17.35.25-22.81,25.88-24.55,43.08-23.45.43-4.26-3.21-6.47-7.13-7.2-11.57-2.17-22.06,3.19-24.94,2.03-2.42-.97-3.46-12.59-3.62-15.68-.11-2.11,1.34-3.52,3.17-4.27,12.02-4.95,25.27-6.21,37.93-3.6,13.87,2.85,22.89,13.03,25.02,27.11,2.3,15.2,1.48,30.59-.19,46.01-.16,1.48-1.8,2.65-3.16,2.68-6.19.12-12.36.81-18.47-.27-2.06-.98-1.88-4.48-3.06-6.7-9.57,10.54-31.03,11.1-42.21.69Z"/>
      <path class="cls-3" d="M623.84,103.73c-1.62,3.45-5.36,4.12-8.7,4.02-3.33-.09-6.09-1.98-6.48-4.82-.47-3.4,1.44-6.21,5.04-6.96,3.53-.73,7.02-1.06,10.69-.58.47,2.78.69,5.7-.55,8.33Z"/>
      <path class="cls-2" d="M175.69,104.18c15.28,3.59,27.76-5.17,29.49-1.2,1.81,4.15,2.84,8.59,3.74,13.03.67,3.28-1.02,5.71-4.11,7.07-20.32,8.97-51.17,7.05-62.63-13.67-7.27-13.14-7.3-29.7.63-42.56,7.06-11.46,19.86-16.67,32.86-16.87,8.37-.12,16.07.88,22.97,5.02,9.19,5.52,13.6,14.51,13.02,25.1-.45,8.22-5.05,13.84-13.36,15.53-10.11,2.06-20.56,2.28-31.27,1.54.97,3.87,4.61,6.06,8.65,7.01Z"/>
      <path class="cls-3" d="M182.55,80.73c-5.38,1.6-10.78.8-16.49.93-.06-2.89.48-5.79,2.64-7.85,4.57-4.36,14.44-3.34,15.46,1.96.24,1.26.49,4.33-1.61,4.96Z"/>
      <path class="cls-2" d="M317.84,120.8c-8.98-8.83-8.97-23.96-.39-32.76,8.15-8.35,25.31-8.52,36.8-8.57.07-3.33-2.8-5.87-6.29-6.63-16.68-3.63-25.97,6.86-27.39-.87-.67-3.64-3.41-15.18-.09-16.61,17.58-7.58,48.38-9.52,59.43,9.56,8.33,14.39,6.55,43.76,4.19,59.77-.61,4.11-18.45,2.3-21.9,1.89l-2.68-6.64c-9.18,10.53-31.28,11.09-41.68.85Z"/>
      <path class="cls-3" d="M354.14,103.89c-1.38,3.1-4.56,3.91-7.1,4.1-2.76.21-5.81-.72-7.4-3.46-1.91-3.29.71-7.24,4.19-8.34,3.56-1.13,7.07-1.16,10.84-.71.35,2.81.69,5.68-.53,8.41Z"/>
      <path class="cls-2" d="M429.06,86.38c.17.59-.06,1.07-.36,1.4-.32.36-.79.45-1.35.5l-5.91.57c-1.92.18-3.75.16-5.66.32l-2.51.21-14.31-.02c-1.18,0-1.88-.92-1.71-1.84.21-1.22.54-2.37.6-3.58l.18-3.89.04-24.59-.4-3.89c-.06-.63-.77-2.14-.18-2.82.25-.29.64-.63,1.23-.63l11.44.09,3.57.15,4.66.3,3.71.33c1.36.12,5.53.46,6.55.77.57.17.8.96.6,1.49-.66,1.76-.93,3.49-1.05,5.32l-.33,4.9-.05,15.75.18,1.82c.25,2.47.38,4.89,1.07,7.35Z"/>
      <path class="cls-2" d="M429.76,44.88c.09.59-.05.93-.47,1.25s-.74.26-1.35.2l-7.96-.77-3.73-.29-3.03-.09c-.86-.02-1.7-.15-2.58-.15l-11.96-.07c-1.02,0-1.56-1.02-1.21-1.73,1.15-2.31,1.66-6.47,1.93-9.06l.68-6.59.35-3.22.34-3.94c.09-1.1.44-6.54.62-7.05.34-.95,1.61-1.71,2.83-1.7,4.4.04,8.64.42,12.99.83l2.96.27,10.32,1.29c1.28.16,1.97,1.2,1.67,2.26-.74,2.65-1.04,5.3-1.39,7.98l-.29,2.23c-.13,1.03-.2,1.99-.31,3.02l-.36,3.48-.32,5.02c-.09,1.33-.34,2.64-.15,3.96l.42,2.86Z"/>
      <path class="cls-2" d="M410.89,127.44l-3.83.13c-1.07.04-2.19.07-3.22.02-2.17-.1-3.31-1.67-3.26-3.51.06-2.22-.25-4.33-.41-6.54l-.75-10.44-.47-5.06-.37-2.76c-.24-1.81-.6-3.52-1.33-5.19-.2-.46.1-1.05.39-1.32.38-.35.87-.26,1.42-.24l2.84.12c2.24.1,4.45.24,6.72.17l4.07-.12,2.61-.13c4.25-.21,8.41-.55,12.63-1.03.61-.07,1.05,0,1.35.37.35.42.37.84.24,1.39-.74,3.25-.52,5.99-.33,9.33l.31,5.65.31,3.84.36,2.91c.12.93.16,1.79.3,2.71l.32,2.22.33,1.93.35,1.8c.14.72-.54,1.6-1.36,1.75-4.9.89-9.75,1.41-14.71,1.72l-4.5.29Z"/>
      <path class="cls-2" d="M364.35.25c.98,3.52,3.21,9.61,8.49,15.31,8.93,9.65,20.3,11.4,23.71,11.8-.06-1.64-.69-13.74-11.1-21.67C376.35-1.23,366.28-.02,364.35.25Z"/>
      <path class="cls-2" d="M397.1,29.55c-1.67-.97-7.08-3.86-14.28-2.89-8.37,1.13-13.19,6.66-14.28,7.98.93.7,7.77,5.67,16.61,3.52,7.4-1.8,11.15-7.36,11.94-8.6Z"/>
      <circle class="cls-2" cx="668.22" cy="118.03" r="8.68"/>
      <path class="cls-1" d="M520.09,51.54c3.56.8,9.98,1.73,17.51-.21,12.74-3.28,19.67-12.46,21.64-15.28-1.47-.73-12.42-5.91-24.34-.51-10.41,4.72-14.13,14.16-14.81,15.99Z"/>
      <path class="cls-2" d="M519.9,49.28c3.56.8,9.98,1.73,17.51-.21,12.74-3.28,19.67-12.46,21.64-15.28-1.47-.73-12.42-5.91-24.34-.51-10.41,4.72-14.13,14.16-14.81,15.99Z"/>
    </g>
  </g>
</svg>