<?xml version="1.0" encoding="UTF-8"?>
<svg id="Calque_1" data-name="Calque 1" xmlns="http://www.w3.org/2000/svg" viewBox="0 0 1268.96 567.77">
  <defs>
    <style>
      .cls-1 {
        fill: #177070;
      }
    </style>
  </defs>
  <path class="cls-1" d="M571.22,335.35c20.46-56.74-12.02-115.79-69.97-132.18-17.99-5.09-36.4-7.63-54.77-7.5-5.32,2.15-10.97,4.05-16.97,5.6-15.02,3.87-28.8,4.65-40.48,4.12-55.61,19.34-89.99,69.21-91.81,128.1-1.01,32.51,4.77,62,22.46,90.04,46.87,74.26,158.59,79.93,232.88,45.61,12.42-5.74,17.28-16.75,13.77-28.89l-10.93-37.77c-9.14-31.57-48.55,12.07-113.69-2.88-14.47-3.32-27.07-10.81-30.7-24.96l70.75-1.33c26.56-.5,78.65-7.96,89.46-37.96ZM467.73,311.14c-18.73,7.81-41.1,2.32-60.64,4.04-3.16-14.2,3.9-22.43,10.37-29.84,10.97-12.56,42.43-14.36,52.94,2.09,3.29,5.15,6.62,19.84-2.67,23.71Z"/>
  <path class="cls-1" d="M363.64,199.02c13.34,3.02,37.39,6.48,65.58-.78,47.71-12.29,73.68-46.67,81.04-57.22-5.5-2.72-46.53-22.15-91.16-1.91-39,17.69-52.91,53.03-55.46,59.9Z"/>
  <path class="cls-1" d="M833.53,466.32c-12.75,49.51-40.71,87.07-92.48,97.84-32,6.66-64.58,3.92-95.18-6.78-10.63-3.72-16.27-12.75-14.84-24.27,2.12-17.17,5.78-34.21,9.93-50.89,6.33-25.41,34.05,1.99,66.26-7.8,14-4.26,21.93-17.93,25.46-30.64-36.07,2.87-68.99-3.85-80.63-40.53-4.62-14.54-8.41-28.49-11.83-43.72l-30.81-136.94c-2.02-8.97,4.11-16.56,12.17-18.63,27.42-7.03,55.24-9.79,83.24-6.63,11.23,1.27,19.32,9.51,20.85,20.63l15.15,110.11c1.29,9.39,3.99,32.21,10.32,36.22,7.23,4.57,11.96-24.75,13-30.45l20.27-111.85c2.39-13.17,12.05-21.47,24.77-23.25,25.23-3.53,50.41-2,75.45,3.16,7.37,1.52,14.56,9.4,12.36,17.95l-63.46,246.47Z"/>
  <path class="cls-1" d="M249.03,332.36c.31,2.22.07,6.32-1.07,7.2-1.13.88-4,1.83-5.95,2.01-38.88,3.61-75.84,5.26-114.97,4.05-10.51-.33-2.89-19.45-2.82-33.9l.42-85.26c.23-46.76-11.37-49.18,9.44-49.04,38.15.25,74.15,1.23,112.55,6.29,2.12.28,3.61,2.3,3.25,4.42l-2.94,16.96c-4.86,28.01-2.48,94.23,2.09,127.29Z"/>
  <path class="cls-1" d="M147.44,490.96c-9.13.12-12.87-8.12-13.32-15.32l-2.84-44.77c-1.45-22.89-2.68-45.44-7.45-67.83-.85-3.98-1.85-7.36-1.68-11.22.09-1.99,1.78-3.54,3.75-3.46,40.09,1.72,77.91.46,117.87-3.98,13.31-1.48,4.66,9.65,5.58,31.79,1.33,32.22,4.48,63.25,9.3,94.96.37,2.43.69,6.12.05,7.74-3.48,8.81-96.72,11.9-111.25,12.09Z"/>
  <path class="cls-1" d="M251.14,177.3c-.32,1.88-2.08,3.2-3.98,2.99-40.53-4.54-78.45-6.74-118.48-5.23-1.78.07-6.38-1.46-6.76-3.15-.39-1.7.43-4.9,1.12-7.46,4.29-15.95,6.36-32.07,7.87-48.72l5.86-64.64c.3-3.28,1.81-8.28,3.89-9.73,10.29-7.18,96.77,4.53,115.85,7.01,2.31.3,5.35,6.14,4.98,8.34-6.02,35.8-10.74,70.37-11.11,106.51-.05,4.59,1.63,9.04.76,14.08Z"/>
  <path class="cls-1" d="M122.75,104.2C65.49,98.83,15.26,59.47,0,1.25c42.28-6.4,81.35,12.1,104.52,46.72,10.45,16.06,16.33,33.44,18.23,56.22Z"/>
  <circle class="cls-1" cx="1236.29" cy="445.87" r="32.67"/>
  <path class="cls-1" d="M122.41,111.79c-21.64,37.85-72.54,45.89-108.42,20.15,26-32.49,71.2-41.13,108.42-20.15Z"/>
  <path class="cls-1" d="M1178.29,309.98c-6.39-55.2-39.15-96.89-94.84-108.47-48.16-10.01-97.57-4.9-142.93,13.94-5.37,2.23-11.68,7.37-11.6,13.4.26,18.73,3.13,36.3,8.35,53.89,1.81,6.12,7.45,8.88,13.68,7.67l39.75-7.76c21.16-4.13,73.31-5.8,72.04,26.11-45.42-1.75-107.91-1.28-141.17,33.9-16.91,17.88-21.5,41.69-19.95,65.77,1.75,27.24,14.21,50.74,39.12,65.09,42.76,24.62,105.14,23.74,142.76-12.8,5.22,8.51,2.88,24.14,17.24,25.16,22.42,1.59,44.13,1.59,66.36-.57,5.96-.58,9.38-7.14,9.84-12.35,5.18-58.83,8.21-103.92,1.37-162.97ZM1065.27,391.85c-3.56,19.77-26.74,25.86-44.96,20.36-9.84-2.97-15.41-11.56-15.28-20.62.38-27.16,38.88-26.18,59.86-24.55,1.17,8.31,1.89,16.47.39,24.8Z"/>
</svg>