<?xml version="1.0" encoding="UTF-8"?>
<svg id="Calque_2" data-name="Calque 2" xmlns="http://www.w3.org/2000/svg" xmlns:xlink="http://www.w3.org/1999/xlink" viewBox="0 0 303.62 181.56">
  <defs>
    <style>
      .cls-1 {
        fill: none;
      }

      .cls-2 {
        fill: #177070;
      }

      .cls-3 {
        clip-path: url(#clippath);
      }
    </style>
    <clipPath id="clippath">
      <rect class="cls-1" width="303.62" height="181.56"/>
    </clipPath>
  </defs>
  <g id="Calque_1-2" data-name="Calque 1">
    <g class="cls-3">
      <path class="cls-2" d="M0,.47c1.83,6.55,5.98,17.89,15.81,28.51,16.63,17.97,37.79,21.22,44.14,21.96-.11-3.05-1.28-25.58-20.66-40.33C22.35-2.28,3.61-.04,0,.47"/>
      <path class="cls-2" d="M60.97,55c-3.1-1.81-13.19-7.18-26.58-5.38-15.58,2.1-24.56,12.4-26.58,14.85,1.72,1.3,14.46,10.55,30.93,6.55,13.78-3.35,20.75-13.7,22.23-16.02"/>
      <path class="cls-2" d="M206.13,180.19c-15.37,1.1-29.89,1.08-44.51-.09-3.75-.3-6.54-2.72-6.83-6.34-1.68-21.35-1.07-42.04-1.67-63.47-.19-6.77-1.36-13.73-6.7-17.9-4.6-3.59-10.98-2.93-16.26-.23-4.19,2.13-8.15,8.05-8.18,14.25l-.34,66.23c-.02,3.05-1.37,6.68-4.84,7.18-14.93,2.14-29.76,2.31-45.05.61-3.7-.41-7.21-2.93-7.59-7.06-3.72-41.35-3.65-82.39.8-123.79.33-3.1,1.8-7.02,5.05-7.31,12.66-1.12,25.53-1.5,38,.24l5.77,16.21c10.03-13.89,25.17-19.93,41.89-20.3,17.46-.39,32.68,6.44,42.92,21.54,12.92-15,29.73-22.37,49.41-21.6,35.86,1.42,50.84,26.58,54.13,59.84,2.5,25.32,1.46,50.3-.05,75.69-.21,3.55-2.31,6.14-5.68,6.4-14.75,1.11-29.26,1.54-43.82-.26-4.94-.61-8.05-3.07-8.1-8.24l-.59-57.43c-.07-6.63-.46-13.8-4.26-19.19-4.01-5.69-12.14-5.9-17.93-3.68-5.86,2.25-9.18,8.97-9.23,16.1l-.5,66.17c-.02,2.8-2.09,6.17-5.83,6.44"/>
    </g>
  </g>
</svg>