<?xml version="1.0" encoding="UTF-8"?>
<svg id="Calque_1" data-name="Calque 1" xmlns="http://www.w3.org/2000/svg" viewBox="0 0 1142.1 513.01">
  <defs>
    <style>
      .cls-1 {
        fill: #007172;
      }
    </style>
  </defs>
  <path class="cls-1" d="M260.73,377.13c-55.6,48-131.03,58.01-192.87,23.92C20.62,375.01-4.17,325.55.57,272.42,8.71,181.23,111.81,79.47,187.27,32.16,215.09,14.72,245.11,5.28,277.27.9c69.27-9.42,120.26,56.39,117.74,118.54-1.09,27.03-2.22,55.8-12.18,82.01-25.54,67.23-66.48,127.66-122.1,175.68ZM263.05,277.25c-30.85-8.31-51.12-25.55-58.98-47.17-9.47-26.03-5.61-54.42,11.57-74.9,21.08-25.13,52.72-28.1,84.82-19.2-22.28-25.74-56.91-25.85-85.77-10.93-24.09,12.45-41.89,32.04-48.24,55.79-7.17,26.84-4.25,54.38,14.36,75.98,20.31,23.57,55.26,30.23,82.23,20.42ZM316.52,192.57c1.2-8.64-4.83-16.62-13.48-17.82-8.64-1.2-16.62,4.83-17.82,13.48-1.2,8.64,4.83,16.62,13.48,17.82,8.64,1.2,16.62-4.83,17.82-13.48Z"/>
  <path class="cls-1" d="M759.26,204.49c-9.96-26.21-11.09-54.98-12.18-82.01-2.51-62.15,48.47-127.96,117.74-118.54,32.16,4.37,62.18,13.82,90,31.26,75.46,47.3,178.55,149.07,186.69,240.26,4.74,53.12-20.05,102.58-67.29,128.62-61.84,34.09-137.27,24.08-192.87-23.92-55.62-48.02-96.56-108.45-122.1-175.68ZM961.28,259.87c18.61-21.6,21.53-49.14,14.36-75.98-6.35-23.76-24.15-43.34-48.24-55.79-28.87-14.92-63.49-14.81-85.77,10.93,32.1-8.9,63.75-5.94,84.82,19.2,17.18,20.49,21.04,48.88,11.57,74.9-7.86,21.62-28.13,38.86-58.98,47.17,26.97,9.81,61.92,3.16,82.23-20.42ZM843.4,209.09c8.64-1.2,14.68-9.18,13.48-17.82-1.2-8.64-9.18-14.68-17.82-13.48-8.64,1.2-14.68,9.18-13.48,17.82,1.2,8.64,9.18,14.68,17.82,13.48Z"/>
  <path class="cls-1" d="M566.37,443.17c0,4.73.35,9.59-.07,14.31-.99,11.11-11.12,19.5-19.71,25.46-14.5,10.07-31.85,15.49-49.3,17.48-30.23,3.43-61.04-1.97-88.76-14.37-6.62-2.96-12.41,6.83-5.74,9.82,49.1,21.97,118.55,27.65,160.78-12.17,7.66-7.22,13.35-15.45,14.1-26.22.33-4.74.07-9.56.07-14.31,0-7.32-11.37-7.33-11.37,0h0Z"/>
  <path class="cls-1" d="M735.43,486.28c-28.09,12.57-59.54,18.06-90.17,14.2-17.89-2.25-35.75-8.1-50.27-19.03-8.68-6.54-16.98-14.43-17.4-25.9-.15-4.12,0-8.27,0-12.4,0-10.69,0-21.38,0-32.06,0-7.32-11.37-7.33-11.37,0,0,10.59,0,21.18,0,31.77,0,4.25-.13,8.52,0,12.77.37,12.05,6.21,20.95,14.86,28.94,25.11,23.2,60.68,29.9,93.86,28.17,22.95-1.2,45.3-7.28,66.22-16.64,6.67-2.98.89-12.79-5.74-9.82h0Z"/>
  <path class="cls-1" d="M572.06,408.98c-36.39-3.16-65.92-22.75-65.92-22.75-53.97-34.72-40.08-69.12-40.08-69.12,12.63-38.19,106-35.36,106-35.36h.27s93.38-2.82,106,35.37c0,0,13.89,34.4-40.08,69.12,0,0-29.53,19.59-65.92,22.75h-.27Z"/>
</svg>